<svg xmlns="http://www.w3.org/2000/svg" width="73.895" height="62.4" viewBox="0 0 73.895 62.4">
    <g>
        <g>
            <path fill="#0f63e0" d="M77.252 38.936V28.242a7.4 7.4 0 0 0-4.926-6.958v-3.716c0-3.622-3.315-6.568-7.389-6.568H12.389C8.315 11 5 13.947 5 17.568V66.01a7.4 7.4 0 0 0 7.389 7.39h57.474a7.4 7.4 0 0 0 7.389-7.389V55.316a4.089 4.089 0 0 0 1.642-3.264V42.2a4.089 4.089 0 0 0-1.642-3.264zM75.61 52.053a.832.832 0 0 1-.821.821H60.01a.832.832 0 0 1-.821-.821V42.2a.832.832 0 0 1 .821-.821h14.779a.832.832 0 0 1 .821.821zM12.389 14.284h52.548c2.225 0 4.105 1.5 4.105 3.284v3.284H12.389c-2.225 0-4.105-1.5-4.105-3.284s1.88-3.284 4.105-3.284zm57.474 55.832H12.389a4.11 4.11 0 0 1-4.105-4.106V23.026a8 8 0 0 0 4.105 1.111h57.474a4.11 4.11 0 0 1 4.105 4.105v9.853H60.01a4.11 4.11 0 0 0-4.105 4.105v9.853a4.11 4.11 0 0 0 4.105 4.105h13.958v9.852a4.11 4.11 0 0 1-4.105 4.106z" transform="translate(-5 -11) translate(5 11) translate(-5 -11)"/>
        </g>
    </g>
</svg>
